<svg width="24" height="24" viewBox="0 0 24 24" fill="none" xmlns="http://www.w3.org/2000/svg">
<path d="M12.7031 15.0469H22.0781V2.10938C22.0781 0.946266 21.1319 0 19.9688 0H12.7031V15.0469ZM15 9.42188C15.3883 9.42188 15.7031 9.73669 15.7031 10.125V11.25C15.7031 11.6383 15.3883 11.9531 15 11.9531C14.6117 11.9531 14.2969 11.6383 14.2969 11.25V10.125C14.2969 9.73669 14.6117 9.42188 15 9.42188ZM12.7031 16.4531V22.4531H17.2969V23.2969C17.2969 23.6852 17.6117 24 18 24C18.3883 24 18.7031 23.6852 18.7031 23.2969V22.4531H19.9688C21.1319 22.4531 22.0781 21.5069 22.0781 20.3438V16.4531H12.7031ZM17.25 19.5H16.125C15.7367 19.5 15.4219 19.1852 15.4219 18.7969C15.4219 18.4086 15.7367 18.0938 16.125 18.0938H17.25C17.6383 18.0938 17.9531 18.4086 17.9531 18.7969C17.9531 19.1852 17.6383 19.5 17.25 19.5ZM11.2969 0H4.03125C2.86814 0 1.92188 0.946266 1.92188 2.10938V20.3438C1.92188 21.5069 2.86814 22.4531 4.03125 22.4531H5.29688V23.2969C5.29688 23.6852 5.61169 24 6 24C6.38831 24 6.70312 23.6852 6.70312 23.2969V22.4531H11.2969V0ZM9 11.9531C8.61169 11.9531 8.29688 11.6383 8.29688 11.25V10.125C8.29688 9.73669 8.61169 9.42188 9 9.42188C9.38831 9.42188 9.70312 9.73669 9.70312 10.125V11.25C9.70312 11.6383 9.38831 11.9531 9 11.9531Z" fill="black"/>
</svg>
