<svg width="24" height="25" viewBox="0 0 24 25" fill="none" xmlns="http://www.w3.org/2000/svg">
<path d="M14.7048 6.80298H2.1008C1.2176 6.80298 0.5 7.52556 0.5 8.4149V17.412C0.5 17.8604 0.68032 18.2606 0.96736 18.5533C1.25808 18.846 1.6592 19.0276 2.1008 19.0276H14.7048C15.588 19.0276 16.3056 18.305 16.3056 17.412V8.4149C16.3056 7.52556 15.588 6.80298 14.7048 6.80298ZM9.0744 17.8233H7.7312C7.5288 17.8233 7.3632 17.6566 7.3632 17.4527C7.3632 17.2489 7.5288 17.0822 7.7312 17.0822H9.0744C9.2768 17.0822 9.4424 17.2489 9.4424 17.4527C9.4424 17.6566 9.2768 17.8233 9.0744 17.8233ZM14.8336 16.1262H1.972V8.2852H14.8336V16.1262ZM12.4744 21.2621H11.3965V19.7687H5.40912V21.2621H4.33014C4.23254 21.2621 4.13894 21.3011 4.06993 21.3706C4.00092 21.4401 3.96214 21.5343 3.96214 21.6326C3.96214 21.7309 4.00092 21.8251 4.06993 21.8946C4.13894 21.9641 4.23254 22.0032 4.33014 22.0032H12.474C12.5716 22.0032 12.6652 21.9641 12.7342 21.8946C12.8032 21.8251 12.842 21.7309 12.842 21.6326C12.842 21.5343 12.8032 21.4401 12.7342 21.3706C12.6652 21.3011 12.5716 21.2621 12.474 21.2621" fill="black"/>
<path d="M21.9323 2.16357H14.9734C14.1086 2.16357 13.4058 2.87134 13.4058 3.74214V6.06182H14.7048C15.4224 6.06182 16.0649 6.39013 16.494 6.90483H21.4134C21.511 6.90483 21.6046 6.94387 21.6737 7.01337C21.7427 7.08286 21.7814 7.17711 21.7814 7.27539C21.7814 7.37366 21.7427 7.46792 21.6737 7.53741C21.6046 7.6069 21.511 7.64594 21.4134 7.64594H16.9106C16.9941 7.88717 17.0416 8.14545 17.0416 8.41485V9.38607H21.4134C21.511 9.38607 21.6046 9.42511 21.6737 9.4946C21.7427 9.5641 21.7814 9.65835 21.7814 9.75663C21.7814 9.8549 21.7427 9.94916 21.6737 10.0186C21.6046 10.0881 21.511 10.1272 21.4134 10.1272H17.0416V11.8677H21.4134C21.511 11.8677 21.6046 11.9067 21.6737 11.9762C21.7427 12.0457 21.7814 12.14 21.7814 12.2382C21.7814 12.3365 21.7427 12.4308 21.6737 12.5003C21.6046 12.5698 21.511 12.6088 21.4134 12.6088H17.0416V17.4119C17.0416 18.7126 15.9928 19.7687 14.7048 19.7687H13.4058V20.054C13.4058 20.9248 14.1086 21.6326 14.9734 21.6326H21.9323C22.7971 21.6326 23.5 20.9248 23.5 20.054V3.74214C23.5 2.87134 22.7971 2.16357 21.9323 2.16357ZM18.454 18.3958C18.1145 18.396 17.7889 18.2604 17.5486 18.019C17.3083 17.7775 17.1731 17.4499 17.1726 17.1081C17.1726 16.3955 17.7463 15.8174 18.454 15.8174C19.1616 15.8174 19.7328 16.3955 19.7328 17.1081C19.7328 17.2772 19.6997 17.4446 19.6354 17.6008C19.5712 17.757 19.477 17.8989 19.3582 18.0185C19.2395 18.138 19.0985 18.2328 18.9433 18.2975C18.7882 18.3622 18.6219 18.3958 18.454 18.3958ZM21.4134 5.16396H15.6318C15.5342 5.16396 15.4406 5.12492 15.3716 5.05543C15.3026 4.98594 15.2638 4.89168 15.2638 4.79341C15.2638 4.69513 15.3026 4.60088 15.3716 4.53138C15.4406 4.46189 15.5342 4.42285 15.6318 4.42285H21.4131C21.5107 4.42285 21.6043 4.46189 21.6733 4.53138C21.7423 4.60088 21.7811 4.69513 21.7811 4.79341C21.7811 4.89168 21.7423 4.98594 21.6733 5.05543C21.6043 5.12492 21.5107 5.16396 21.4131 5.16396" fill="black"/>
</svg>
