<svg width="24" height="25" viewBox="0 0 24 25" fill="none" xmlns="http://www.w3.org/2000/svg">
<path d="M3.1764 11.6284V13.6748H20.8238V11.6284H12.5388C12.2401 11.6284 12.0001 11.87 12.0001 12.1682C12.0001 11.87 11.7601 11.6284 11.4614 11.6284H3.1764ZM1.08793 16.8421V19.5202C1.08793 19.7439 1.2692 19.9264 1.49134 19.9264H1.9509C2.12452 19.9264 2.28024 19.8132 2.33645 19.6461L2.92365 16.8421C2.80552 16.8421 1.0621 16.8422 1.08793 16.8421ZM3.1764 10.1475V11.1142H11.4614C11.561 11.1142 11.6554 11.1271 11.7448 11.1528V4.68015C11.5175 4.41276 11.155 4.24053 10.7465 4.24053H3.3781C2.68365 4.24053 2.12195 4.7367 2.12195 5.35115V8.46881C2.74491 8.76698 3.1764 9.40716 3.1764 10.1475ZM20.8238 11.1142V10.1475C20.8238 9.40711 21.2553 8.76698 21.8783 8.46876V5.35111C21.8783 4.73665 21.3166 4.24048 20.6221 4.24048H13.2537C12.8452 4.24048 12.4826 4.41271 12.2554 4.6801V11.1527C12.3447 11.127 12.4392 11.1142 12.5388 11.1142L20.8238 11.1142ZM21.0766 16.8421L21.6638 19.6461C21.7199 19.8132 21.8757 19.9264 22.0493 19.9264H22.5089C22.731 19.9264 22.9123 19.7439 22.9123 19.5202V16.8421C22.7387 16.8421 21.0507 16.8422 21.0766 16.8421Z" fill="black"/>
<path d="M22.6671 8.80298C21.9318 8.80298 21.3344 9.40455 21.3344 10.1475V14.189H2.66574V10.1475C2.66574 9.40455 2.06832 8.80298 1.33299 8.80298C0.597666 8.80298 0.000244141 9.40455 0.000244141 10.1475V15.4255C0.000244141 15.9217 0.401072 16.3279 0.8964 16.3279C1.44423 16.3279 22.5551 16.3297 23.1037 16.3279C23.599 16.3279 23.9999 15.9217 23.9999 15.4255V10.1475C23.9999 9.40455 23.4024 8.80298 22.6671 8.80298Z" fill="black"/>
</svg>
