<svg width="24" height="24" viewBox="0 0 24 24" fill="none" xmlns="http://www.w3.org/2000/svg">
<path d="M20.2102 11.241H3.78982C2.91764 11.2421 2.08149 11.5891 1.46477 12.2058C0.848041 12.8225 0.501087 13.6587 0.5 14.5308V16.338H23.5V14.5308C23.4989 13.6587 23.152 12.8225 22.5352 12.2058C21.9185 11.5891 21.0824 11.2421 20.2102 11.241ZM0.5 17.1594V21.0612C0.501086 21.286 0.591137 21.5012 0.750459 21.6597C0.909781 21.8183 1.12541 21.9073 1.35018 21.9073H2.29893C2.52299 21.9062 2.73756 21.8167 2.896 21.6583C3.05443 21.4998 3.14392 21.2853 3.145 21.0612V20.4205C3.14576 20.2737 3.20441 20.1331 3.30823 20.0293C3.41205 19.9254 3.55264 19.8668 3.69946 19.866H20.202C20.349 19.866 20.49 19.9244 20.594 20.0284C20.698 20.1324 20.7564 20.2734 20.7564 20.4205V21.0612C20.7575 21.2853 20.847 21.4998 21.0054 21.6583C21.1639 21.8167 21.3784 21.9062 21.6025 21.9073H22.6498C22.8746 21.9073 23.0902 21.8183 23.2495 21.6597C23.4089 21.5012 23.4989 21.286 23.5 21.0612V17.1594H0.5ZM5.49429 8.71924H9.83964V10.4196H5.49429V8.71924ZM14.1932 8.71924H18.5386V10.4196H14.1932V8.71924Z" fill="black"/>
<path d="M3.7898 10.4197H4.67283V8.71932C4.67245 8.61134 4.69344 8.50436 4.73459 8.40453C4.77573 8.3047 4.83622 8.21399 4.91258 8.13764C4.98893 8.06129 5.07963 8.00079 5.17947 7.95965C5.2793 7.9185 5.38628 7.89751 5.49426 7.89789H9.83962C10.0575 7.89789 10.2664 7.98444 10.4205 8.13848C10.5745 8.29253 10.661 8.50147 10.661 8.71932V10.4197H13.3718V8.71932C13.3714 8.61134 13.3924 8.50436 13.4335 8.40453C13.4747 8.3047 13.5352 8.21399 13.6115 8.13764C13.6879 8.06129 13.7786 8.00079 13.8784 7.95965C13.9782 7.9185 14.0852 7.89751 14.1932 7.89789H18.5385C18.7564 7.89789 18.9653 7.98444 19.1194 8.13848C19.2734 8.29253 19.36 8.50147 19.36 8.71932V10.4197C20.2713 10.3909 21.2944 10.4217 22.0994 10.8838V6.88754C22.0984 6.50046 21.9438 6.12962 21.6697 5.8563C21.3957 5.58298 21.0244 5.4295 20.6373 5.4295H18.711C18.2217 5.42965 17.7441 5.27907 17.3434 4.99825C12.2752 1.47022 8.45551 3.75789 7.05087 4.90379C6.62365 5.24394 6.09375 5.42926 5.54765 5.4295H3.16962C2.97761 5.42896 2.78737 5.46625 2.60977 5.53923C2.43217 5.61221 2.27068 5.71946 2.13452 5.85485C1.99837 5.99024 1.89022 6.15112 1.81624 6.32831C1.74226 6.5055 1.70391 6.69553 1.70337 6.88754V10.9906C2.33502 10.6165 3.0557 10.4193 3.7898 10.4197Z" fill="black"/>
</svg>
